# xmcd CD database file
# Generated: Thu Jan 23 13:24:11 2003 by KSCD
# 
# Track frame offsets:
#       150
#       9850
#       27675
#       42179
#       67245
#       78467
#       95917
#       109343
#       125361
#       140728
#       150239
#       173723
#       207222
#       252482
#       264873
#
# Disc length: 3830 seconds
#
# Revision: 1
# Processed by: cddbd v1.4PL0 Copyright (c) Steve Scherf et al.
# Submitted via: Kscd 1.3.3
#
DISCID=d00ef40f
DTITLE=Butch Hancock - The Wind's Dominion
DYEAR=1900
DGENRE=
TTITLE0=Sea's Deaddog Catch
TTITLE1=Capture... Fracture... and the Rapture
TTITLE2=Long Road to Asia Minor
TTITLE3=Smokin' in the Rain
TTITLE4=Fightin' for My Life
TTITLE5=Personal Rendition of the Blues
TTITLE6=Row of Dominoes
TTITLE7=Once Followed by the Wind
TTITLE8=Wild Horses Chase the Wind
TTITLE9=Own and Own
TTITLE10=Mario y Maria
TTITLE11=Eternal Triangles
TTITLE12=Only Born
TTITLE13=Gift Horse of Mercy
TTITLE14=Wind's Dominion
EXTD=
EXTT0=
EXTT1=
EXTT2=
EXTT3=
EXTT4=
EXTT5=
EXTT6=
EXTT7=
EXTT8=
EXTT9=
EXTT10=
EXTT11=
EXTT12=
EXTT13=
EXTT14=
PLAYORDER=
